<?xml version="1.0" encoding="UTF-8" standalone="no"?>
<svg
   xmlns:dc="http://purl.org/dc/elements/1.1/"
   xmlns:cc="http://creativecommons.org/ns#"
   xmlns:rdf="http://www.w3.org/1999/02/22-rdf-syntax-ns#"
   xmlns:svg="http://www.w3.org/2000/svg"
   xmlns="http://www.w3.org/2000/svg"
   viewBox="0 0 870.14667 228.17332"
   height="228.17332"
   width="870.14667"
   xml:space="preserve"
   id="svg2"
   version="1.1"><metadata
     id="metadata8"><rdf:RDF><cc:Work
         rdf:about=""><dc:format>image/svg+xml</dc:format><dc:type
           rdf:resource="http://purl.org/dc/dcmitype/StillImage" /></cc:Work></rdf:RDF></metadata><defs
     id="defs6" /><g
     transform="matrix(1.3333333,0,0,-1.3333333,0,228.17333)"
     id="g10"><g
       transform="scale(0.1)"
       id="g12"><path
         id="path14"
         style="fill:#231f20;fill-opacity:1;fill-rule:nonzero;stroke:none"
         d="m 290.02,627.82 h 813.53 l 55.49,83.961 H 234.535 L 290.02,627.82" /><path
         id="path16"
         style="fill:#231f20;fill-opacity:1;fill-rule:nonzero;stroke:none"
         d="M 1004.98,1335.91 H 1298 l -0.07,-580.113 c 0,-226.317 -151.58,-392.496 -305.375,-502.785 -28.7,-20.582 -57.426,-39.184 -85.176,-55.813 l 47.879,315.762 h 74.252 v 75.07 H 364.066 v -75.07 h 57.981 L 469.664,198.91 C 443.121,215.078 415.688,233.109 388.27,252.98 236.188,363.25 86.2344,529.359 86.2344,755.727 l 0.7578,580.183 H 359.047 c -47.082,-74.26 -94.16,-160.98 -100.313,-261.69 -13.808,-225.935 212.043,-360.075 355.254,-326.189 -137.957,44.356 -213.222,194.274 -97.48,352.829 0.363,-28.4 16.105,-57.65 43.93,-70.57 -21.333,110.7 110.085,277.48 152.699,287.35 -48.278,-236.37 162.179,-244.12 170.91,-392.792 5.449,-92.793 -46.434,-153.7 -98.172,-174.766 115.438,-11.172 252.565,34.191 306.755,241.93 34.56,132.498 -28.71,244.918 -87.65,343.898 z m -49.167,225.5 c -90.715,-37.56 -144.059,-195.3 -64.657,-346.57 0,0 -92.566,25.49 -71.23,209.73 33.398,288.49 -257.117,337.69 -314.875,242.73 115.242,23.25 175.844,-227.05 -34.813,-381.01 150.793,197.03 20.848,364.21 -64.867,323.98 82.992,-46.19 59.5,-107.91 9.457,-188.12 H 0.875 L 0,755.785 C 0,487.871 177.563,299.238 337.652,183.172 424.188,120.441 518.512,72.4102 587.555,41.3086 L 560.133,512.961 h 49.851 l 28.7,-493.6719 C 669.656,6.58203 688.57,0 688.57,0 c 0,0 18.692,6.42969 49.395,18.8711 l 28.723,494.0899 h 49.851 L 789.078,40.6094 c 69.801,31.0312 165.707,79.1996 253.732,142.3316 161.63,115.887 341.36,304.547 341.36,572.844 l 0.07,666.365 H 954.77 c -17.696,32.17 -31.571,70.63 1.043,139.26" /><path
         id="path18"
         style="fill:#231f20;fill-opacity:1;fill-rule:nonzero;stroke:none"
         d="m 1048.46,140.609 h 13.59 V 91.2891 h 16.44 v 49.3199 h 13.59 v 13.93 h -43.62 v -13.93" /><path
         id="path20"
         style="fill:#231f20;fill-opacity:1;fill-rule:nonzero;stroke:none"
         d="M 1147.59,154.539 1134,120.73 l -12.83,33.809 h -16.19 l -10.74,-63.2499 h 16.36 l 5.28,36.4099 h 0.17 l 14.51,-36.4099 h 6.54 l 15.19,36.4099 h 0.17 l 4.61,-36.4099 h 16.44 l -9.56,63.2499 h -16.36" /><path
         id="path22"
         style="fill:#231f20;fill-opacity:1;fill-rule:nonzero;stroke:none"
         d="m 1574.74,1344.43 h 66.36 l 103.52,-375.602 h 1.33 l 110.82,375.602 h 73 l 110.82,-375.602 h 1.32 l 103.52,375.602 h 66.37 L 2075.09,874.594 h -67.02 l -114.14,383.566 h -1.33 L 1779.13,874.594 h -67.03 l -137.36,469.836" /><path
         id="path24"
         style="fill:#231f20;fill-opacity:1;fill-rule:nonzero;stroke:none"
         d="m 2460.01,1057.75 c -1.33,52.43 -30.53,91.58 -90.92,91.58 -59.06,0 -97.55,-49.78 -97.55,-91.58 z m -188.47,-47.78 c 0,-55.075 51.1,-91.575 106.18,-91.575 36.5,0 63.04,18.578 86.27,47.113 L 2509.12,931 c -33.19,-43.133 -78.97,-64.375 -139.36,-64.375 -99.55,0 -161.92,71.676 -161.92,165.245 0,94.23 68.35,165.24 162.58,165.24 110.83,0 153.3,-84.95 153.3,-165.9 v -21.24 h -252.18" /><path
         id="path26"
         style="fill:#231f20;fill-opacity:1;fill-rule:nonzero;stroke:none"
         d="m 2762.63,1110.18 c -13.93,17.25 -34.5,31.18 -64.37,31.18 -27.87,0 -52.42,-12.61 -52.42,-35.17 0,-37.82 53.75,-43.13 80.29,-49.1 51.77,-12.61 91.58,-32.52 91.58,-91.582 0,-71.004 -65.03,-98.883 -127.41,-98.883 -51.76,0 -90.25,13.277 -121.44,55.75 l 45.12,37.16 c 19.25,-19.242 41.81,-37.16 76.32,-37.16 30.53,0 63.7,12.605 63.7,39.816 0,35.836 -49.77,42.469 -75.65,48.449 -51.09,12.6 -96.22,29.2 -96.22,89.58 0,65.7 60.39,96.89 119.45,96.89 41.81,0 84.94,-14.6 107.5,-51.76 l -46.45,-35.17" /><path
         id="path28"
         style="fill:#231f20;fill-opacity:1;fill-rule:nonzero;stroke:none"
         d="M 3058.6,1137.38 H 2973 V 994.707 c 0,-35.172 0,-72.332 45.13,-72.332 13.93,0 30.52,1.992 42.47,9.293 V 877.25 c -13.94,-7.969 -41.82,-10.625 -53.76,-10.625 -92.24,0 -93.57,56.414 -93.57,106.848 v 163.907 h -69.01 v 51.76 h 69.01 v 88.26 H 2973 v -88.26 h 85.6 v -51.76" /><path
         id="path30"
         style="fill:#231f20;fill-opacity:1;fill-rule:nonzero;stroke:none"
         d="m 3369.18,1057.75 c -1.33,52.43 -30.53,91.58 -90.92,91.58 -59.06,0 -97.55,-49.78 -97.55,-91.58 z m -188.47,-47.78 c 0,-55.075 51.1,-91.575 106.18,-91.575 36.5,0 63.04,18.578 86.27,47.113 L 3418.29,931 c -33.18,-43.133 -78.97,-64.375 -139.36,-64.375 -99.55,0 -161.92,71.676 -161.92,165.245 0,94.23 68.35,165.24 162.58,165.24 110.82,0 153.29,-84.95 153.29,-165.9 v -21.24 h -252.17" /><path
         id="path32"
         style="fill:#231f20;fill-opacity:1;fill-rule:nonzero;stroke:none"
         d="m 3504.58,1189.14 h 59.72 v -48.44 h 1.33 c 15.25,33.18 55.08,56.41 94.22,56.41 9.3,0 18.59,-1.33 26.54,-3.98 l -2.65,-64.38 c -9.95,2.66 -19.91,4.65 -29.2,4.65 -58.4,0 -90.24,-31.85 -90.24,-100.86 V 874.594 h -59.72 v 314.546" /><path
         id="path34"
         style="fill:#231f20;fill-opacity:1;fill-rule:nonzero;stroke:none"
         d="m 3750.12,1189.14 h 59.73 v -48.44 h 1.33 c 15.25,33.18 55.07,56.41 103.51,56.41 61.06,0 114.14,-36.5 114.14,-120.12 V 874.594 h -59.72 v 185.816 c 0,59.05 -33.85,80.95 -71.68,80.95 -49.77,0 -87.58,-31.85 -87.58,-104.84 V 874.594 h -59.73 v 314.546" /><path
         id="path36"
         style="fill:#231f20;fill-opacity:1;fill-rule:nonzero;stroke:none"
         d="m 4711.7,1109.51 c 0,102.86 -69.68,187.13 -177.18,187.13 -107.5,0 -177.19,-84.27 -177.19,-187.13 0,-102.86 69.69,-187.135 177.19,-187.135 107.5,0 177.18,84.275 177.18,187.135 z m -422.05,0 c 0,139.36 101.53,246.87 244.87,246.87 143.34,0 244.86,-107.51 244.86,-246.87 0,-139.354 -101.52,-246.858 -244.86,-246.858 -143.34,0 -244.87,107.504 -244.87,246.858" /><path
         id="path38"
         style="fill:#231f20;fill-opacity:1;fill-rule:nonzero;stroke:none"
         d="m 4855.73,1189.14 h 59.72 v -48.44 h 1.33 c 15.26,33.18 55.08,56.41 94.22,56.41 9.3,0 18.59,-1.33 26.54,-3.98 l -2.65,-64.38 c -9.94,2.66 -19.9,4.65 -29.2,4.65 -58.4,0 -90.24,-31.85 -90.24,-100.86 V 874.594 h -59.72 v 314.546" /><path
         id="path40"
         style="fill:#231f20;fill-opacity:1;fill-rule:nonzero;stroke:none"
         d="m 5322.92,1057.75 c -1.33,52.43 -30.53,91.58 -90.92,91.58 -59.07,0 -97.54,-49.78 -97.54,-91.58 z m -188.46,-47.78 c 0,-55.075 51.09,-91.575 106.17,-91.575 36.5,0 63.05,18.578 86.27,47.113 L 5372.02,931 c -33.19,-43.133 -78.97,-64.375 -139.36,-64.375 -99.53,0 -161.91,71.676 -161.91,165.245 0,94.23 68.34,165.24 162.58,165.24 110.82,0 153.3,-84.95 153.3,-165.9 v -21.24 h -252.17" /><path
         id="path42"
         style="fill:#231f20;fill-opacity:1;fill-rule:nonzero;stroke:none"
         d="m 5506.74,1031.87 c 0,-63.706 39.83,-105.511 103.54,-105.511 63.71,0 103.51,41.805 103.51,105.511 0,63.71 -39.8,109.49 -103.51,109.49 -63.71,0 -103.54,-45.78 -103.54,-109.49 z m 266.78,-154.62 c 0,-94.902 -69.02,-161.914 -171.87,-161.914 -59.73,0 -109.5,15.254 -153.95,56.406 l 40.47,50.43 c 31.19,-33.184 66.37,-51.09 112.15,-51.09 88.92,0 113.47,55.738 113.47,108.82 v 46.457 h -1.99 c -22.56,-37.828 -65.68,-55.75 -108.83,-55.75 -92.24,0 -160.58,69.684 -159.92,161.261 0,92.91 62.37,165.24 159.92,165.24 42.48,0 86.27,-19.25 109.5,-53.09 h 1.32 v 45.12 h 59.73 V 877.25" /><path
         id="path44"
         style="fill:#231f20;fill-opacity:1;fill-rule:nonzero;stroke:none"
         d="m 6012.43,922.375 c 63.71,0 103.53,45.789 103.53,109.495 0,63.71 -39.82,109.49 -103.53,109.49 -63.69,0 -103.52,-45.78 -103.52,-109.49 0,-63.706 39.83,-109.495 103.52,-109.495 z m 0,274.735 c 93.57,0 167.22,-73.66 167.22,-165.24 0,-91.577 -73.65,-165.245 -167.22,-165.245 -93.56,0 -167.23,73.668 -167.23,165.245 0,91.58 73.67,165.24 167.23,165.24" /><path
         id="path46"
         style="fill:#231f20;fill-opacity:1;fill-rule:nonzero;stroke:none"
         d="m 6247.37,1189.14 h 59.72 v -48.44 h 1.33 c 15.26,33.18 55.08,56.41 103.52,56.41 61.05,0 114.14,-36.5 114.14,-120.12 V 874.594 h -59.73 v 185.816 c 0,59.05 -33.85,80.95 -71.68,80.95 -49.76,0 -87.58,-31.85 -87.58,-104.84 V 874.594 h -59.72 v 314.546" /><path
         id="path48"
         style="fill:#231f20;fill-opacity:1;fill-rule:nonzero;stroke:none"
         d="M 1750.18,680.039 V 515.141 c 0,-33.43 16.72,-76.75 67.63,-76.75 50.92,0 67.63,43.32 67.63,76.75 v 164.898 h 36.48 v -170.59 c 0,-62.32 -45.22,-105.25 -104.11,-105.25 -58.89,0 -104.1,42.93 -104.1,105.25 v 170.59 h 36.47" /><path
         id="path50"
         style="fill:#231f20;fill-opacity:1;fill-rule:nonzero;stroke:none"
         d="m 2152.61,680.039 h 47.87 L 2348.66,458.91 h 0.76 v 221.129 h 36.47 v -269 h -46.35 l -149.7,221.121 h -0.76 V 411.039 h -36.47 v 269" /><path
         id="path52"
         style="fill:#231f20;fill-opacity:1;fill-rule:nonzero;stroke:none"
         d="M 2621.52,680.039 H 2658 v -269 h -36.48 v 269" /><path
         id="path54"
         style="fill:#231f20;fill-opacity:1;fill-rule:nonzero;stroke:none"
         d="m 2856.75,680.039 h 42.17 l 79.03,-218.84 h 0.76 l 82.07,218.84 h 39.89 l -106,-269 h -34.2 l -103.72,269" /><path
         id="path56"
         style="fill:#231f20;fill-opacity:1;fill-rule:nonzero;stroke:none"
         d="m 3299.43,680.039 h 173.64 V 645.852 H 3335.91 V 565.68 h 127.67 v -34.2 h -127.67 v -86.242 h 144 v -34.199 h -180.48 v 269" /><path
         id="path58"
         style="fill:#231f20;fill-opacity:1;fill-rule:nonzero;stroke:none"
         d="m 3734.52,561.5 h 47.89 c 28.86,0 57.73,6.84 57.73,43.309 0,36.472 -28.87,43.32 -57.73,43.32 h -47.89 z m -36.47,118.539 h 94.61 c 68.77,0 86.25,-41.41 86.25,-75.23 0,-34.188 -25.47,-66.477 -66.11,-71.039 l 76.37,-122.731 h -45.59 l -68.4,118.551 h -40.66 V 411.039 h -36.47 v 269" /><path
         id="path60"
         style="fill:#231f20;fill-opacity:1;fill-rule:nonzero;stroke:none"
         d="m 4104.65,467.27 c 12.91,-19.75 35.34,-28.879 57,-28.879 23.94,0 53.57,15.211 53.57,44.839 0,61.93 -132.6,23.551 -132.6,128.418 0,31.543 26.58,75.231 91.17,75.231 29.26,0 57.39,-6.078 77.52,-30.77 l -29.63,-26.98 c -9.12,14.062 -26.99,23.551 -47.89,23.551 -40.27,0 -52.42,-24.321 -52.42,-41.032 0,-68.007 132.6,-27.359 132.6,-124.238 0,-52.051 -41.8,-83.211 -93.46,-83.211 -34.59,0 -67.63,11.781 -85.88,37.231 l 30.02,25.84" /><path
         id="path62"
         style="fill:#231f20;fill-opacity:1;fill-rule:nonzero;stroke:none"
         d="m 4474.38,680.039 h 36.48 v -269 h -36.48 v 269" /><path
         id="path64"
         style="fill:#231f20;fill-opacity:1;fill-rule:nonzero;stroke:none"
         d="m 4802.7,645.852 h -86.62 v 34.187 h 209.73 v -34.187 h -86.63 V 411.039 h -36.48 v 234.813" /><path
         id="path66"
         style="fill:#231f20;fill-opacity:1;fill-rule:nonzero;stroke:none"
         d="m 5194.48,525.789 -101.82,154.25 h 46.72 l 73.34,-118.16 75.61,118.16 h 44.45 l -101.82,-154.25 v -114.75 h -36.48 v 114.75" /></g></g></svg>